<svg xmlns="http://www.w3.org/2000/svg" width="23.329" height="20.413" viewBox="0 0 23.329 20.413">
  <path id="Icon_awesome-bars" data-name="Icon awesome-bars" d="M.833,7.968H22.5a.833.833,0,0,0,.833-.833V5.052a.833.833,0,0,0-.833-.833H.833A.833.833,0,0,0,0,5.052V7.135A.833.833,0,0,0,.833,7.968Zm0,8.332H22.5a.833.833,0,0,0,.833-.833V13.384a.833.833,0,0,0-.833-.833H.833A.833.833,0,0,0,0,13.384v2.083A.833.833,0,0,0,.833,16.3Zm0,8.332H22.5a.833.833,0,0,0,.833-.833V21.716a.833.833,0,0,0-.833-.833H.833A.833.833,0,0,0,0,21.716V23.8A.833.833,0,0,0,.833,24.632Z" transform="translate(0 -4.219)" fill="#f5f5f5"/>
</svg>
