<svg xmlns="http://www.w3.org/2000/svg" width="22.07" height="18.746" viewBox="0 0 22.07 18.746">
  <g id="Grupo_1" data-name="Grupo 1" transform="translate(-148.387 -226.977)">
    <path id="Icon_ionic-ios-close" data-name="Icon ionic-ios-close" d="M22.883,20.662l6.7-6.7a1.569,1.569,0,0,0-2.219-2.219l-6.7,6.7-6.7-6.7a1.569,1.569,0,1,0-2.219,2.219l6.7,6.7-6.7,6.7a1.569,1.569,0,0,0,2.219,2.219l6.7-6.7,6.7,6.7a1.569,1.569,0,0,0,2.219-2.219Z" transform="translate(138.479 215.689)" fill="#f5f5f5"/>
    <path id="Icon_ionic-md-close" data-name="Icon ionic-md-close" d="M28.8,8.526l-2.128-1-8.511,4.01L9.651,7.523l-2.128,1,8.511,4.01-8.511,4.01,2.128,1,8.511-4.01,8.511,4.01,2.128-1-8.511-4.01Z" transform="matrix(0.996, 0.087, -0.087, 0.996, 142.422, 220.978)" fill="none"/>
  </g>
</svg>
