<svg xmlns="http://www.w3.org/2000/svg" width="37.752" height="36.809" viewBox="0 0 37.752 36.809">
  <path id="Icon_awesome-github" data-name="Icon awesome-github" d="M12.627,30.2c0,.152-.175.274-.4.274-.251.023-.426-.1-.426-.274,0-.152.175-.274.4-.274C12.429,29.9,12.627,30.026,12.627,30.2Zm-2.367-.343c-.053.152.1.327.327.373a.357.357,0,0,0,.472-.152c.046-.152-.1-.327-.327-.4A.391.391,0,0,0,10.26,29.859Zm3.364-.129c-.221.053-.373.2-.35.373.023.152.221.251.449.2s.373-.2.35-.35S13.845,29.706,13.624,29.729ZM18.633.563A18.251,18.251,0,0,0,0,19.134,19.082,19.082,0,0,0,12.9,37.34c.974.175,1.317-.426,1.317-.921,0-.472-.023-3.075-.023-4.673,0,0-5.328,1.142-6.447-2.268,0,0-.868-2.215-2.116-2.786,0,0-1.743-1.195.122-1.172a4.018,4.018,0,0,1,2.938,1.964,4.023,4.023,0,0,0,5.549,1.591,4.23,4.23,0,0,1,1.218-2.565C11.2,26.038,6.911,25.421,6.911,18.1a5.768,5.768,0,0,1,1.8-4.483,7.191,7.191,0,0,1,.2-5.168C10.5,7.953,14.157,10.5,14.157,10.5a17.981,17.981,0,0,1,9.56,0s3.661-2.557,5.252-2.055a7.188,7.188,0,0,1,.2,5.168A5.916,5.916,0,0,1,31.13,18.1c0,7.345-4.483,7.931-8.738,8.411a4.5,4.5,0,0,1,1.294,3.532c0,2.565-.023,5.739-.023,6.363,0,.495.35,1.1,1.317.921A18.907,18.907,0,0,0,37.752,19.134C37.752,8.577,29.189.563,18.633.563ZM7.4,26.814c-.1.076-.076.251.053.4.122.122.3.175.4.076.1-.076.076-.251-.053-.4C7.672,26.768,7.5,26.715,7.4,26.814ZM6.576,26.2c-.053.1.023.221.175.3a.226.226,0,0,0,.327-.053c.053-.1-.023-.221-.175-.3C6.751,26.1,6.629,26.121,6.576,26.2Zm2.466,2.71c-.122.1-.076.327.1.472.175.175.4.2.495.076.1-.1.053-.327-.1-.472C9.37,28.808,9.141,28.785,9.042,28.907Zm-.868-1.119c-.122.076-.122.274,0,.449s.327.251.426.175a.347.347,0,0,0,0-.472C8.494,27.765,8.3,27.689,8.175,27.788Z" transform="translate(0 -0.563)" fill="#18d26e"/>
</svg>