<svg xmlns="http://www.w3.org/2000/svg" width="31.55" height="36.809" viewBox="0 0 31.55 36.809">
  <path id="Icon_metro-language" data-name="Icon metro-language" d="M18.2,24.346q-.02.062-.257-.01T17.3,24.1l-.411-.185A12.307,12.307,0,0,1,15.1,22.908q-.144-.1-.842-.647t-.781-.585a34.993,34.993,0,0,1-2.752,3.718A15.27,15.27,0,0,1,8.57,27.653a1.628,1.628,0,0,1-.4.082.791.791,0,0,1-.38,0q.123-.082,1.684-1.89.431-.493,1.756-2.362a28.718,28.718,0,0,0,1.612-2.424q.349-.616,1.048-2.023a16.011,16.011,0,0,0,.739-1.592,16.879,16.879,0,0,0-2.259.678q-.164.041-.565.154t-.709.2a3.519,3.519,0,0,0-.349.1.349.349,0,0,0-.041.216.456.456,0,0,1-.02.2q-.1.205-.637.308a1.656,1.656,0,0,1-.965,0,.866.866,0,0,1-.575-.431,1.045,1.045,0,0,1-.1-.472,3.969,3.969,0,0,1,.5-.1,6.133,6.133,0,0,0,.606-.123q1.191-.329,2.157-.657,2.054-.719,2.1-.719a4.557,4.557,0,0,0,.883-.4,9.291,9.291,0,0,1,.9-.442q.185-.062.442-.164t.3-.113a.275.275,0,0,1,.123.01,2.337,2.337,0,0,1-.021.678,4.373,4.373,0,0,1-.257.555q-.257.514-.544,1.1t-.349.688a30.807,30.807,0,0,1-1.582,2.691l1.315.575q.246.123,1.53.657T17.9,23.2q.082.021.216.524a1.556,1.556,0,0,1,.092.627Zm-4.211-9.983a.833.833,0,0,1-.082.575,1.862,1.862,0,0,1-1.027.781,3.3,3.3,0,0,1-1.233.246,1.7,1.7,0,0,1-1.006-.534,1.545,1.545,0,0,1-.37-.842l.021-.062a.879.879,0,0,0,.4.1,1.786,1.786,0,0,0,.544,0q.205-.041,1.191-.329a5.865,5.865,0,0,1,1.13-.288.405.405,0,0,1,.431.349Zm14.337,2.65,1.294,4.663-2.855-.863ZM5.571,33.446,19.826,28.68V7.482L5.571,12.268V33.446Zm25.491-6.511,2.1.637-3.718-13.5-2.054-.637-4.437,11.01,2.1.637.924-2.259L30.3,24.161ZM20.73,7.174,32.5,10.954V3.148ZM27.118,34.35l3.245.267L29.254,37.9l-.822-1.356a15.227,15.227,0,0,1-5.669,2.218,9.845,9.845,0,0,1-1.869.246H19.169a13.883,13.883,0,0,1-4.1-.8A13.64,13.64,0,0,1,11.3,36.465a.428.428,0,0,1-.164-.329.4.4,0,0,1,.1-.277.344.344,0,0,1,.267-.113,1.156,1.156,0,0,1,.37.154q.288.154.627.339t.421.226A18.2,18.2,0,0,0,16.2,37.729a11.969,11.969,0,0,0,3.235.5,17.529,17.529,0,0,0,3.43-.3A16.929,16.929,0,0,0,26.091,36.9q.308-.144.627-.318t.7-.39q.38-.216.585-.339Zm9.2-22.163V34.35L20.422,29.3q-.288.123-7.7,2.619t-7.559,2.5a.372.372,0,0,1-.37-.267.158.158,0,0,0-.02-.062V11.94a.917.917,0,0,1,.082-.205.924.924,0,0,1,.411-.226q2.177-.719,3.061-1.027V2.594L19.785,6.661q.041,0,3.3-1.13T29.573,3.3q3.235-1.1,3.317-1.1.411,0,.411.431v8.586Z" transform="translate(-4.77 -2.203)" fill="#fff"/>
</svg>
