<svg xmlns="http://www.w3.org/2000/svg" width="36.809" height="36.809" viewBox="0 0 36.809 36.809">
  <path id="Icon_awesome-linkedin" data-name="Icon awesome-linkedin" d="M34.18,2.25H2.621A2.641,2.641,0,0,0,0,4.9v31.5a2.641,2.641,0,0,0,2.621,2.654H34.18a2.648,2.648,0,0,0,2.629-2.654V4.9A2.648,2.648,0,0,0,34.18,2.25ZM11.125,33.8H5.669V16.234h5.464V33.8ZM8.4,13.835a3.163,3.163,0,1,1,3.163-3.163A3.165,3.165,0,0,1,8.4,13.835ZM31.575,33.8H26.12V25.256c0-2.038-.041-4.659-2.835-4.659-2.843,0-3.278,2.218-3.278,4.511V33.8H14.551V16.234h5.234v2.4h.074A5.746,5.746,0,0,1,25.027,15.8c5.521,0,6.548,3.64,6.548,8.372Z" transform="translate(0 -2.25)" fill="#f5f5f5"/>
</svg>
