<svg xmlns="http://www.w3.org/2000/svg" width="193.61" height="193.61" viewBox="0 0 193.61 193.61">
  <path id="Icon_awesome-info-circle" data-name="Icon awesome-info-circle" d="M97.367.563a96.8,96.8,0,1,0,96.8,96.8A96.82,96.82,0,0,0,97.367.563Zm0,42.938A16.394,16.394,0,1,1,80.973,59.895,16.394,16.394,0,0,1,97.367,43.5Zm21.859,99.147a4.684,4.684,0,0,1-4.684,4.684H80.192a4.684,4.684,0,0,1-4.684-4.684v-9.368a4.684,4.684,0,0,1,4.684-4.684h4.684V103.613H80.192a4.684,4.684,0,0,1-4.684-4.684V89.561a4.684,4.684,0,0,1,4.684-4.684h24.982a4.684,4.684,0,0,1,4.684,4.684v39.034h4.684a4.684,4.684,0,0,1,4.684,4.684Z" transform="translate(-0.563 -0.563)" fill="#911fc2"/>
</svg>
